<svg width="60" height="45" viewBox="0 0 60 45" fill="none" xmlns="http://www.w3.org/2000/svg">
<path fill-rule="evenodd" clip-rule="evenodd" d="M8.25708 29.272L8.04693 15.822C7.93208 8.472 14.6002 2.87292 21.8196 4.25745L42.0145 8.13045C48.2078 9.31822 52.3152 15.2395 51.2583 21.4565L49.6302 31.0335C48.683 36.6055 43.8551 40.6818 38.2032 40.6818H19.8466C13.5157 40.6818 8.35599 35.6021 8.25708 29.272ZM6.00172 15.8539L6.21188 29.304C6.32824 36.7512 12.3985 42.7273 19.8466 42.7273H38.2032C44.8525 42.7273 50.5323 37.9316 51.6467 31.3763L53.2748 21.7993C54.5182 14.4851 49.686 7.51898 42.3997 6.1216L22.2048 2.2486C13.7115 0.619747 5.86661 7.2069 6.00172 15.8539Z" fill="#B9328B"/>
<path fill-rule="evenodd" clip-rule="evenodd" d="M42.5992 19.5869L32.3306 29.8555L24.8306 22.3555L18.0538 29.1323L16.6074 27.686L24.8306 19.4628L32.3306 26.9628L41.1529 18.1405L42.5992 19.5869Z" fill="#E83FB9"/>
</svg>
