<svg width="105" height="148" viewBox="0 0 105 148" fill="none" xmlns="http://www.w3.org/2000/svg">
<path opacity="0.2" d="M2.42622 86.3498L96.0184 16.8103C96.9973 16.083 98.1785 17.4079 97.3441 18.2972L48.4263 70.4377C47.8272 71.0762 48.2799 72.1219 49.1556 72.1219H101.909C102.879 72.1219 103.281 73.3642 102.495 73.9324L7.42829 142.632C6.45911 143.332 5.30052 142.049 6.09585 141.156L51.8245 89.8176C52.3988 89.1729 51.9411 88.1525 51.0778 88.1525H3.02261C2.05932 88.1525 1.653 86.9243 2.42622 86.3498Z" fill="url(#paint0_linear_950_233)"/>
<path d="M2.42622 76.2128L96.0184 6.67336C96.9973 5.94606 98.1785 7.2709 97.3441 8.16026L48.4263 60.3007C47.8272 60.9393 48.2799 61.9849 49.1556 61.9849H101.909C102.879 61.9849 103.281 63.2273 102.495 63.7954L7.42829 132.495C6.45911 133.195 5.30052 131.912 6.09585 131.019L51.8245 79.6806C52.3988 79.0359 51.9411 78.0155 51.0778 78.0155H3.02261C2.05932 78.0155 1.653 76.7873 2.42622 76.2128Z" fill="url(#paint1_linear_950_233)"/>
<defs>
<linearGradient id="paint0_linear_950_233" x1="52.5" y1="10.137" x2="52.5" y2="148" gradientUnits="userSpaceOnUse">
<stop stop-color="#FFE145"/>
<stop offset="1" stop-color="#F66628"/>
</linearGradient>
<linearGradient id="paint1_linear_950_233" x1="52.5" y1="0" x2="52.5" y2="137.863" gradientUnits="userSpaceOnUse">
<stop stop-color="#FFE145"/>
<stop offset="1" stop-color="#FB5C2A"/>
</linearGradient>
</defs>
</svg>
