<svg width="60" height="45" viewBox="0 0 60 45" fill="none" xmlns="http://www.w3.org/2000/svg">
<path fill-rule="evenodd" clip-rule="evenodd" d="M15.0218 9.67525L10.858 21.1257C7.65577 29.9317 15.6838 38.7007 24.7376 36.2864L43.0226 31.4103C47.0145 30.3458 50.138 27.2371 51.2213 23.2503L53.0079 16.6758C55.0109 9.30482 49.4609 2.04545 41.8226 2.04545H25.9148C21.0408 2.04545 16.6874 5.09465 15.0218 9.67525ZM8.93565 20.4267L13.0995 8.97623C15.0591 3.58729 20.1806 0 25.9148 0H41.8226C50.8088 0 57.3382 8.54044 54.9818 17.2122L53.1952 23.7867C51.9207 28.477 48.246 32.1344 43.5496 33.3867L25.2646 38.2627C14.6131 41.1031 5.16837 30.7867 8.93565 20.4267Z" fill="#4DB932"/>
<path d="M33.6769 21.8669C36.6983 21.8669 39.1558 19.4093 39.1558 16.388C39.1558 13.3666 36.6979 10.9091 33.6769 10.9091H28.198C27.5257 10.9091 26.9805 11.4543 26.9805 12.1266V19.4318H25.7629C25.0906 19.4318 24.5454 19.9759 24.5454 20.6493C24.5454 21.3228 25.0906 21.8669 25.7629 21.8669H26.9805V23.0844H25.7629C25.0906 23.0844 24.5454 23.6296 24.5454 24.3019C24.5454 24.9742 25.0906 25.5194 25.7629 25.5194H26.9805V26.737C26.9805 27.4093 27.5257 27.9545 28.198 27.9545C28.8703 27.9545 29.4155 27.4093 29.4155 26.737V25.5194H35.5032C36.1755 25.5194 36.7207 24.9742 36.7207 24.3019C36.7207 23.6296 36.1755 23.0844 35.5032 23.0844H29.4155V21.8669H33.6769ZM29.4155 13.3441H33.6769C35.3548 13.3441 36.7207 14.71 36.7207 16.388C36.7207 18.0659 35.3548 19.4318 33.6769 19.4318H29.4155V13.3441Z" fill="#49AE3C"/>
</svg>
