<svg width="60" height="45" viewBox="0 0 60 45" fill="none" xmlns="http://www.w3.org/2000/svg">
<path fill-rule="evenodd" clip-rule="evenodd" d="M8.25708 29.272L8.04693 15.822C7.93208 8.472 14.6002 2.87292 21.8196 4.25745L42.0145 8.13045C48.2078 9.31822 52.3152 15.2395 51.2583 21.4565L49.6302 31.0335C48.683 36.6055 43.8551 40.6818 38.2032 40.6818H19.8466C13.5157 40.6818 8.35599 35.6021 8.25708 29.272ZM6.00172 15.8539L6.21188 29.304C6.32824 36.7512 12.3985 42.7273 19.8466 42.7273H38.2032C44.8525 42.7273 50.5323 37.9316 51.6467 31.3763L53.2748 21.7993C54.5182 14.4851 49.686 7.51898 42.3997 6.1216L22.2048 2.2486C13.7115 0.619747 5.86661 7.2069 6.00172 15.8539Z" fill="#47D5D5"/>
<path d="M36.6772 17.1591H33.3533V16.0512C33.3523 15.1699 33.0018 14.325 32.3787 13.7019C31.7556 13.0788 30.9107 12.7283 30.0295 12.7273H27.8135C26.9323 12.7283 26.0874 13.0788 25.4643 13.7019C24.8412 14.325 24.4907 15.1699 24.4897 16.0512V17.1591H21.1658C21.0203 17.159 20.8762 17.1876 20.7417 17.2433C20.6073 17.2989 20.4851 17.3805 20.3822 17.4834C20.2793 17.5863 20.1977 17.7085 20.142 17.843C20.0864 17.9774 20.0578 18.1215 20.0579 18.2671V29.3466C20.0578 29.4921 20.0864 29.6362 20.142 29.7707C20.1977 29.9052 20.2793 30.0273 20.3822 30.1302C20.4851 30.2331 20.6073 30.3147 20.7417 30.3704C20.8762 30.426 21.0203 30.4546 21.1658 30.4546H36.6772C36.8227 30.4546 36.9668 30.426 37.1013 30.3704C37.2357 30.3147 37.3579 30.2331 37.4608 30.1302C37.5637 30.0273 37.6453 29.9052 37.701 29.7707C37.7566 29.6362 37.7852 29.4921 37.7851 29.3466V18.2671C37.7852 18.1215 37.7566 17.9774 37.701 17.843C37.6453 17.7085 37.5637 17.5863 37.4608 17.4834C37.3579 17.3805 37.2357 17.2989 37.1013 17.2433C36.9668 17.1876 36.8227 17.159 36.6772 17.1591ZM26.7056 16.0512C26.706 15.7574 26.8228 15.4758 27.0305 15.2681C27.2382 15.0604 27.5198 14.9436 27.8135 14.9432H30.0295C30.3232 14.9436 30.6048 15.0604 30.8125 15.2681C31.0202 15.4758 31.137 15.7574 31.1374 16.0512V17.1591H26.7056V16.0512ZM35.5692 28.2387H22.2738V19.375H35.5692V28.2387Z" fill="#41BDCD"/>
</svg>
