<svg width="60" height="45" viewBox="0 0 60 45" fill="none" xmlns="http://www.w3.org/2000/svg">
<path fill-rule="evenodd" clip-rule="evenodd" d="M47.8611 14.9713L49.6547 27.3274C50.7738 35.0368 44.1212 41.6331 36.4215 40.4486L20.3009 37.9685C15.2606 37.1931 11.3192 33.2144 10.5912 28.167L9.16679 18.291C8.15896 11.3034 13.5791 5.04545 20.639 5.04545H36.3904C42.1487 5.04545 47.0339 9.27271 47.8611 14.9713ZM51.6789 27.0335L49.8853 14.6774C48.9121 7.97324 43.1648 3 36.3904 3H20.639C12.3332 3 5.9566 10.3623 7.14228 18.583L8.56671 28.459C9.42317 34.3971 14.0601 39.0779 19.9899 39.9902L36.1105 42.4703C45.1689 43.8639 52.9955 36.1034 51.6789 27.0335Z" fill="#E7993D"/>
<path d="M36.8013 18.4756C36.9452 17.9705 36.9764 17.44 36.8926 16.9216C36.8089 16.4031 36.6123 15.9094 36.3166 15.4753C36.021 15.0413 35.6336 14.6774 35.1819 14.4096C34.7301 14.1418 34.2251 13.9765 33.7024 13.9255C33.4927 13.3237 33.101 12.802 32.5818 12.4326C32.0625 12.0632 31.4412 11.8644 30.804 11.8636C30.0467 11.8662 29.3176 12.1506 28.7585 12.6614C28.1995 12.1506 27.4703 11.8662 26.7131 11.8636C25.3825 11.8636 24.2483 12.7135 23.8239 13.9244C23.3003 13.9742 22.794 14.1386 22.3411 14.406C21.8881 14.6733 21.4996 15.0371 21.2029 15.4714C20.9063 15.9058 20.7089 16.4 20.6247 16.9192C20.5405 17.4384 20.5716 17.9698 20.7158 18.4756C20.0592 18.8249 19.5095 19.3454 19.1249 19.9819C18.7403 20.6185 18.5351 21.3472 18.5312 22.0909C18.5312 23.1904 18.969 24.2243 19.7299 24.9873C19.6135 25.3748 19.5542 25.7772 19.554 26.1818C19.554 28.1833 20.9981 29.8534 22.9351 30.2052C23.2195 30.8337 23.6787 31.3671 24.2579 31.7418C24.8371 32.1164 25.5119 32.3165 26.2017 32.3182C27.203 32.3182 28.1081 31.9019 28.7585 31.2351C29.0905 31.5776 29.4879 31.8499 29.9271 32.036C30.3663 32.222 30.8384 32.318 31.3153 32.3182C32.0039 32.3169 32.6776 32.1176 33.2561 31.7441C33.8346 31.3705 34.2934 30.8385 34.5778 30.2114C35.1485 30.1108 35.6913 29.8903 36.1704 29.5644C36.6496 29.2386 37.0541 28.8148 37.3574 28.3211C37.6607 27.8274 37.8559 27.275 37.9299 26.7003C38.004 26.1256 37.9554 25.5418 37.7872 24.9873C38.1674 24.6069 38.469 24.1553 38.6747 23.6584C38.8803 23.1614 38.9861 22.6288 38.9858 22.0909C38.9819 21.3472 38.7768 20.6185 38.3922 19.9819C38.0076 19.3454 37.4578 18.8249 36.8013 18.4756ZM26.2017 30.2727C25.4745 30.2727 24.8415 29.7573 24.6983 29.0475L24.4815 28.2273H23.6449C22.5168 28.2273 21.5994 27.3099 21.5994 26.1818C21.5994 25.8218 21.6864 25.4843 21.8582 25.1785L22.3245 24.344L21.5227 23.8224C21.2331 23.6357 20.9948 23.3794 20.8295 23.077C20.6643 22.7745 20.5774 22.4355 20.5767 22.0909C20.5767 21.0917 21.3161 20.2255 22.2969 20.0741L24.0284 19.8082L22.9453 18.4316C22.7525 18.1829 22.6406 17.8811 22.6249 17.5668C22.6092 17.2525 22.6904 16.9409 22.8575 16.6743C23.0247 16.4076 23.2696 16.1987 23.5594 16.0759C23.8491 15.953 24.1695 15.9221 24.4774 15.9873L25.6903 16.1663V14.9318C25.6903 14.6606 25.7981 14.4005 25.9899 14.2087C26.1817 14.0169 26.4418 13.9091 26.7131 13.9091C26.9843 13.9091 27.2444 14.0169 27.4362 14.2087C27.628 14.4005 27.7358 14.6606 27.7358 14.9318V28.7386C27.7358 29.5844 27.0475 30.2727 26.2017 30.2727ZM35.9943 23.8214L35.1925 24.343L35.6589 25.1775C35.8307 25.4843 35.9176 25.8218 35.9176 26.1818C35.9176 27.3099 35.0002 28.2273 33.821 28.2273H32.9844L32.8188 29.0475C32.7472 29.3935 32.5587 29.7042 32.2849 29.9274C32.011 30.1506 31.6686 30.2725 31.3153 30.2727C30.4695 30.2727 29.7812 29.5844 29.7812 28.7386V14.9318C29.7812 14.3673 30.2394 13.9091 30.804 13.9091C31.3685 13.9091 31.8267 14.3673 31.8267 14.983V16.2174L33.0397 15.9873C33.3475 15.9221 33.668 15.953 33.9577 16.0759C34.2474 16.1987 34.4924 16.4076 34.6595 16.6743C34.8266 16.9409 34.9079 17.2525 34.8921 17.5668C34.8764 17.8811 34.7646 18.1829 34.5717 18.4316L33.4886 19.8092L35.2201 20.0751C35.6993 20.1527 36.1352 20.398 36.4503 20.7672C36.7654 21.1364 36.9391 21.6055 36.9403 22.0909C36.9403 22.7894 36.5865 23.4358 35.9943 23.8214Z" fill="#EF9846"/>
</svg>
