<svg width="60" height="45" viewBox="0 0 60 45" fill="none" xmlns="http://www.w3.org/2000/svg">
<path fill-rule="evenodd" clip-rule="evenodd" d="M12.9304 12.6753L8.76665 24.1257C5.56446 32.9317 13.5925 41.7007 22.6463 39.2864L40.9313 34.4103C44.9232 33.3458 48.0467 30.2371 49.13 26.2503L50.9166 19.6758C52.9196 12.3048 47.3696 5.04545 39.7313 5.04545H23.8235C18.9495 5.04545 14.5961 8.09465 12.9304 12.6753ZM6.84434 23.4267L11.0081 11.9762C12.9678 6.58729 18.0893 3 23.8235 3H39.7313C48.7175 3 55.2469 11.5404 52.8904 20.2122L51.1039 26.7867C49.8294 31.477 46.1546 35.1344 41.4583 36.3867L23.1733 41.2627C12.5218 44.1031 3.07706 33.7867 6.84434 23.4267Z" fill="#FB5858"/>
<path fill-rule="evenodd" clip-rule="evenodd" d="M28.1963 31.6364H31.0088C31.3969 31.6364 31.7119 31.3214 31.7119 30.9332C31.7119 30.5451 31.3969 30.2301 31.0088 30.2301H28.1963C27.8082 30.2301 27.4932 30.5451 27.4932 30.9332C27.4932 31.3214 27.8082 31.6364 28.1963 31.6364Z" fill="#FB5858"/>
<path fill-rule="evenodd" clip-rule="evenodd" d="M27.4932 29.527H31.7119C32.1 29.527 32.415 29.212 32.415 28.8239C32.415 28.4357 32.1 28.1207 31.7119 28.1207H27.4932C27.105 28.1207 26.79 28.4357 26.79 28.8239C26.79 29.212 27.105 29.527 27.4932 29.527Z" fill="#FB5858"/>
<path fill-rule="evenodd" clip-rule="evenodd" d="M27.4633 27.4148L27.4935 27.4176H31.7123H31.7432C32.1314 27.4162 32.445 27.1019 32.445 26.7145C32.445 25.5831 32.9435 24.5102 33.8076 23.781C35.2174 22.6335 35.834 20.8736 35.834 18.8831C35.834 15.4441 33.0419 12.652 29.6029 12.652C26.1639 12.652 23.3718 15.4441 23.3718 18.8831C23.3718 20.8799 23.9934 22.6441 25.4242 23.7642C26.2877 24.4933 26.7904 25.574 26.7904 26.7138C26.7904 27.2917 27.329 27.3972 27.4633 27.4148ZM31.0865 26.0114H28.1496C27.9759 24.7176 27.3262 23.5251 26.3137 22.675C26.3074 22.6701 26.301 22.6645 26.2947 22.6596C25.1929 21.7996 24.7781 20.418 24.7781 18.8831C24.7781 16.2203 26.9402 14.0582 29.6029 14.0582C32.2657 14.0582 34.4278 16.2203 34.4278 18.8831C34.4278 20.4222 34.0087 21.8074 32.9203 22.6898C32.9175 22.6919 32.9139 22.6947 32.9111 22.6975C31.9057 23.542 31.2595 24.7267 31.0865 26.0114Z" fill="#FB5858"/>
<path fill-rule="evenodd" clip-rule="evenodd" d="M30.3057 11.2457V9.83948C30.3057 9.45135 29.9907 9.13635 29.6025 9.13635C29.2144 9.13635 28.8994 9.45135 28.8994 9.83948V11.2457C28.8994 11.6339 29.2144 11.9489 29.6025 11.9489C29.9907 11.9489 30.3057 11.6339 30.3057 11.2457Z" fill="#FB5858"/>
<path fill-rule="evenodd" clip-rule="evenodd" d="M36.3141 14.317L37.3083 13.3228C37.5825 13.0479 37.5825 12.6028 37.3083 12.3279C37.0341 12.0536 36.5883 12.0536 36.3141 12.3279L35.3192 13.3228C35.045 13.597 35.045 14.0428 35.3192 14.317C35.5941 14.5912 36.0392 14.5912 36.3141 14.317Z" fill="#FB5858"/>
<path fill-rule="evenodd" clip-rule="evenodd" d="M38.3916 20.7374H39.7979C40.186 20.7374 40.501 20.4224 40.501 20.0343C40.501 19.6462 40.186 19.3312 39.7979 19.3312H38.3916C38.0035 19.3312 37.6885 19.6462 37.6885 20.0343C37.6885 20.4224 38.0035 20.7374 38.3916 20.7374Z" fill="#FB5858"/>
<path fill-rule="evenodd" clip-rule="evenodd" d="M35.3216 26.7458L36.3159 27.74C36.5908 28.0143 37.0359 28.0143 37.3101 27.74C37.585 27.4658 37.585 27.02 37.3101 26.7458L36.3159 25.7516C36.0416 25.4767 35.5958 25.4767 35.3216 25.7516C35.0474 26.0258 35.0474 26.4716 35.3216 26.7458Z" fill="#FB5858"/>
<path fill-rule="evenodd" clip-rule="evenodd" d="M22.892 25.7539L21.8978 26.7481C21.6236 27.0231 21.6236 27.4681 21.8978 27.7424C22.172 28.0173 22.6178 28.0173 22.892 27.7424L23.8862 26.7481C24.1612 26.4732 24.1605 26.0281 23.8862 25.7539C23.612 25.479 23.1662 25.479 22.892 25.7539Z" fill="#FB5858"/>
<path fill-rule="evenodd" clip-rule="evenodd" d="M20.8135 19.3339L19.4072 19.3346C19.0191 19.3346 18.7041 19.6496 18.7041 20.0377C18.7041 20.4258 19.0191 20.7408 19.4072 20.7408L20.8135 20.7401C21.2016 20.7401 21.5166 20.4251 21.5166 20.037C21.5166 19.6489 21.2016 19.3339 20.8135 19.3339Z" fill="#FB5858"/>
<path fill-rule="evenodd" clip-rule="evenodd" d="M23.8824 13.3248L22.8881 12.3305C22.6132 12.0563 22.1681 12.0563 21.8939 12.3305C21.619 12.6048 21.6197 13.0505 21.8939 13.3248L22.8888 14.319C23.1631 14.5932 23.6088 14.5932 23.8831 14.319C24.1573 14.0441 24.1573 13.599 23.8824 13.3248Z" fill="#FB5858"/>
</svg>
