<svg width="60" height="45" viewBox="0 0 60 45" fill="none" xmlns="http://www.w3.org/2000/svg">
<path fill-rule="evenodd" clip-rule="evenodd" d="M47.8611 11.9713L49.6547 24.3274C50.7738 32.0368 44.1212 38.6331 36.4215 37.4486L20.3009 34.9685C15.2606 34.1931 11.3192 30.2144 10.5912 25.167L9.16679 15.291C8.15897 8.30339 13.5791 2.04545 20.639 2.04545H36.3904C42.1487 2.04545 47.0339 6.27271 47.8611 11.9713ZM51.6789 24.0335L49.8853 11.6774C48.9121 4.97324 43.1648 0 36.3904 0H20.639C12.3332 0 5.95661 7.36227 7.14229 15.583L8.56671 25.459C9.42317 31.3971 14.0601 36.0779 19.9899 36.9902L36.1105 39.4703C45.1689 40.8639 52.9955 33.1034 51.6789 24.0335Z" fill="#365BED"/>
<path d="M19.8964 16.5375C19.8766 16.8913 20.0746 17.221 20.3965 17.3691L26.8566 20.3322L29.8197 26.7914C29.9609 27.0979 30.2674 27.2933 30.6023 27.2933L30.6513 27.2915C30.8241 27.2819 30.99 27.2203 31.1273 27.115C31.2645 27.0096 31.3669 26.8654 31.421 26.701L36.2376 12.0385C36.3383 11.7303 36.2574 11.3903 36.0284 11.1604C35.7994 10.9305 35.4602 10.8522 35.1503 10.9512L20.4869 15.7687C20.3225 15.8224 20.1781 15.9245 20.0727 16.0617C19.9673 16.1989 19.9059 16.3647 19.8964 16.5375Z" fill="#365EF5"/>
</svg>
