<svg width="120" height="7" viewBox="0 0 120 7" fill="none" xmlns="http://www.w3.org/2000/svg">
<path d="M0 3.5H7.3924C7.54543 3.5 7.69641 3.46488 7.83372 3.39735L12.267 1.21704C12.5453 1.08018 12.8714 1.08018 13.1497 1.21704L22.5093 5.82017C22.7438 5.93545 23.014 5.95443 23.2622 5.87305L30.3482 3.54977C30.4488 3.5168 30.5539 3.5 30.6598 3.5H41.3353C41.4534 3.5 41.5706 3.52092 41.6814 3.56179L44.5003 4.60155C44.7573 4.69634 45.0419 4.68157 45.2877 4.56069L52.1184 1.20133C52.3784 1.07345 52.6811 1.06465 52.9482 1.17721L58.2721 3.42147C58.395 3.4733 58.5271 3.5 58.6605 3.5H61" stroke="#F1257A"/>
<path d="M61 3.5H68.1354C68.2929 3.5 68.4482 3.46278 68.5886 3.39139L72.8384 1.23046C73.1232 1.08564 73.4601 1.08564 73.7449 1.23046L82.7496 5.80911C82.9897 5.93118 83.2688 5.95125 83.5239 5.86479L90.3438 3.55293C90.4473 3.51788 90.5557 3.5 90.6649 3.5H100.969C101.09 3.5 101.211 3.52224 101.325 3.56564L104.016 4.592C104.28 4.69261 104.574 4.677 104.826 4.54902L111.385 1.21377C111.651 1.07841 111.964 1.06912 112.238 1.18844L117.351 3.41672C117.477 3.47165 117.613 3.5 117.75 3.5H120" stroke="#F1257A"/>
</svg>
