<svg width="258" height="138" viewBox="0 0 258 138" fill="none" xmlns="http://www.w3.org/2000/svg">
<path d="M239.531 8.58716C238.828 3.66005 234.608 0 229.631 0H11.5285C5.44355 0 0.769086 5.38894 1.62879 11.4128L18.4691 129.413C19.1723 134.34 23.3918 138 28.3688 138H246.472C252.556 138 257.231 132.611 256.371 126.587L239.531 8.58716Z" fill="#FBC6C6"/>
<path d="M18.4691 8.58716C19.1723 3.66005 23.3918 0 28.3688 0H246.472C252.556 0 257.231 5.38894 256.371 11.4128L239.531 129.413C238.828 134.34 234.608 138 229.631 138H11.5285C5.44355 138 0.769082 132.611 1.62878 126.587L18.4691 8.58716Z" fill="white"/>
</svg>
