<svg width="192" height="101" viewBox="0 0 192 101" fill="none" xmlns="http://www.w3.org/2000/svg">
<path d="M178.357 8.56571C177.644 3.64828 173.429 0 168.461 0H11.5536C5.45992 0 0.782944 5.40363 1.65695 11.4343L13.3961 92.4343C14.1087 97.3517 18.3239 101 23.2927 101H180.2C186.293 101 190.97 95.5964 190.096 89.5657L178.357 8.56571Z" fill="#FBC6C6"/>
<path d="M13.3963 8.56571C14.1089 3.64828 18.3241 0 23.2929 0H180.2C186.294 0 190.97 5.40363 190.096 11.4343L178.357 92.4343C177.645 97.3517 173.43 101 168.461 101H11.5538C5.46011 101 0.783135 95.5964 1.65714 89.5657L13.3963 8.56571Z" fill="white"/>
</svg>
